<svg id="b445ae1f-027d-4b1f-a29d-6989661d8fa2" viewBox="0 0 64 64" xmlns="http://www.w3.org/2000/svg" xmlns:xlink="http://www.w3.org/1999/xlink" data-name="glyph copy"><linearGradient id="ad368079-93c5-4d88-a6e6-6918412bcab0" gradientUnits="userSpaceOnUse" x1="4.013" x2="60.013" y1="31.987" y2="31.987"><stop offset="0" stop-color="#00c0ff"/><stop offset="1" stop-color="#5558ff"/></linearGradient><path d="m59.68268 27.46049c-.04-.09171-.22726-.09983-.24762.02067-.41274 1.66116-3.44622 1.35164-3.70417 1.331a3.89384 3.89384 0 0 0 -4.05494.24765c.04629-1.109-1.37579-2.08272-2.01209-2.25967a4.27924 4.27924 0 0 1 -2.74449-3.147.1293.1293 0 0 0 -.227-.0619c-2.32036 2.99837-.95825 6.19188.54684 8.23374-4.33584 3.97039-7.72327.6946-9.87415-3.28124-1.0168-1.75745-1.70475-3.88468-3.02333-5.56119-5.40032-7.84268-20.37044-11.42914-25.26862-9.40973a6.282 6.282 0 0 0 -4.49866 5.05548c-.52623 3.25018-.95956 8.01707.04131 11.81408 4.37024 1.54893 7.65083 1.85353 13.87318.81265a1.02453 1.02453 0 0 1 1.12341.62585l.00968.02445a1.0231 1.0231 0 0 1 -.77415 1.3826 34.42466 34.42466 0 0 1 -6.25636.60061 25.26046 25.26046 0 0 1 -6.9956-.93891 6.67634 6.67634 0 0 0 2.7962 2.81677 40.0123 40.0123 0 0 0 9.37915 7.7075c-.2269.48126-1.35493 5.59729 3.46673 7.48067a.16632.16632 0 0 0 .05156-.11356c-.00179-.03637.0138-3.79008 2.11517-4.6431a30.59452 30.59452 0 0 0 9.9981 2.0017 9.18575 9.18575 0 0 1 -.88733-.99055 11.76874 11.76874 0 0 1 -2.24489-7.64142 1.019 1.019 0 0 1 1.25923-.95958l.02684.00653a1.00258 1.00258 0 0 1 .7759 1.01185c-.31972 5.96067 3.86767 9.94109 10.84146 9.95566a.13282.13282 0 0 0 .10308-.21663 7.20836 7.20836 0 0 1 -1.93971-5.34471 6.19207 6.19207 0 0 0 -.31341-2.85276 1.04732 1.04732 0 0 1 .278-1.24042l.03513-.0281a1.02864 1.02864 0 0 1 1.58684.41941 7.02025 7.02025 0 0 1 .52855 2.31937 17.95144 17.95144 0 0 0 .01032 2.858 5.54845 5.54845 0 0 0 .87707 1.88821c5.4066-3.2192 7.73847-9.06946 8.729-13.22763 5.00909-.3329 7.9749-3.09093 6.61377-6.69635zm-45.57448-4.92169c-1.52913-.02009-1.5288-3.57092.00007-3.59062 1.5414.0243 1.54104 3.56682-.00007 3.59062z" fill="url(#ad368079-93c5-4d88-a6e6-6918412bcab0)"/></svg>